<?xml version="1.0" encoding="UTF-8" standalone="no"?>
<svg width="400" height="400" xmlns="http://www.w3.org/2000/svg">
  <rect width="100%" height="100%" fill="#ffffff" />
  <path d="M200.00,50.00 A150.00,150.00 0 0,1 238.82,55.11 L200.00,200.00 Z" fill="#0f0f0d" />
  <path d="M238.82,55.11 A150.00,150.00 0 0,1 275.00,70.10 L200.00,200.00 Z" fill="#10100e" />
  <path d="M275.00,70.10 A150.00,150.00 0 0,1 306.07,93.93 L200.00,200.00 Z" fill="#0d0d0b" />
  <path d="M306.07,93.93 A150.00,150.00 0 0,1 329.90,125.00 L200.00,200.00 Z" fill="#e42338" />
  <path d="M329.90,125.00 A150.00,150.00 0 0,1 344.89,161.18 L200.00,200.00 Z" fill="#e52439" />
  <path d="M344.89,161.18 A150.00,150.00 0 0,1 350.00,200.00 L200.00,200.00 Z" fill="#e32235" />
  <path d="M350.00,200.00 A150.00,150.00 0 0,1 344.89,238.82 L200.00,200.00 Z" fill="#0c0c0a" />
  <path d="M344.89,238.82 A150.00,150.00 0 0,1 329.90,275.00 L200.00,200.00 Z" fill="#11110f" />
  <path d="M329.90,275.00 A150.00,150.00 0 0,1 306.07,306.07 L200.00,200.00 Z" fill="#e62538" />
  <path d="M306.07,306.07 A150.00,150.00 0 0,1 275.00,329.90 L200.00,200.00 Z" fill="#0b0d0c" />
  <path d="M275.00,329.90 A150.00,150.00 0 0,1 238.82,344.89 L200.00,200.00 Z" fill="#e72639" />
  <path d="M238.82,344.89 A150.00,150.00 0 0,1 200.00,350.00 L200.00,200.00 Z" fill="#090b08" />
  <path d="M200.00,350.00 A150.00,150.00 0 0,1 161.18,344.89 L200.00,200.00 Z" fill="#e2222f" />
  <path d="M161.18,344.89 A150.00,150.00 0 0,1 125.00,329.90 L200.00,200.00 Z" fill="#0b0b09" />
  <path d="M125.00,329.90 A150.00,150.00 0 0,1 93.93,306.07 L200.00,200.00 Z" fill="#e22134" />
  <path d="M93.93,306.07 A150.00,150.00 0 0,1 70.10,275.00 L200.00,200.00 Z" fill="#0a0a08" />
  <path d="M70.10,275.00 A150.00,150.00 0 0,1 55.11,238.82 L200.00,200.00 Z" fill="#121210" />
  <path d="M55.11,238.82 A150.00,150.00 0 0,1 50.00,200.00 L200.00,200.00 Z" fill="#d21c29" />
  <path d="M50.00,200.00 A150.00,150.00 0 0,1 55.11,161.18 L200.00,200.00 Z" fill="#e1212e" />
  <path d="M55.11,161.18 A150.00,150.00 0 0,1 70.10,125.00 L200.00,200.00 Z" fill="#d31d2a" />
  <path d="M70.10,125.00 A150.00,150.00 0 0,1 93.93,93.93 L200.00,200.00 Z" fill="#cb1925" />
  <path d="M93.93,93.93 A150.00,150.00 0 0,1 125.00,70.10 L200.00,200.00 Z" fill="#ca1824" />
  <path d="M125.00,70.10 A150.00,150.00 0 0,1 161.18,55.11 L200.00,200.00 Z" fill="#c91723" />
</svg>
